<?xml version="1.0" encoding="UTF-8"?>
<svg version="1.0" xmlns="http://www.w3.org/2000/svg"
 width="500.000000pt" height="500.000000pt" viewBox="0 0 500.000000 500.000000"
 preserveAspectRatio="xMidYMid meet">

<g transform="translate(0.000000,500.000000) scale(0.100000,-0.100000)"
fill="#000000" stroke="none">
<path d="M2074 3851 c-493 -87 -907 -441 -1064 -909 -61 -182 -86 -444 -60
-627 98 -683 671 -1186 1353 -1185 124 0 197 7 197 19 0 4 -84 7 -187 7 -199
0 -255 8 -418 60 -338 106 -643 372 -800 699 -48 101 -85 212 -112 336 -27
126 -24 389 5 526 55 257 166 464 351 656 261 270 604 417 979 417 61 0 102 4
102 10 0 16 -235 10 -346 -9z"/>
<path d="M3215 3800 c-3 -6 1 -7 9 -4 18 7 21 14 7 14 -6 0 -13 -4 -16 -10z"/>
<path d="M3269 3794 c15 -11 21 -23 18 -35 -3 -11 -1 -17 4 -13 5 3 9 11 9 18
0 14 -31 46 -46 46 -4 0 2 -7 15 -16z"/>
<path d="M3200 3779 c0 -3 11 -20 25 -39 30 -40 31 -58 8 -77 -16 -13 -16 -13
5 -3 30 15 27 48 -8 90 -17 19 -30 32 -30 29z"/>
<path d="M3162 3724 c-2 -29 22 -64 44 -64 4 0 -1 7 -13 15 -12 9 -23 29 -26
48 l-4 32 -1 -31z"/>
<path d="M3373 3621 c-67 -29 -88 -43 -53 -34 31 8 83 -43 69 -68 -5 -11 -7
-19 -5 -19 3 0 10 9 16 20 9 17 5 24 -22 49 l-32 28 32 17 c54 28 59 23 37
-39 -4 -12 -1 -11 8 5 20 34 30 70 20 70 -4 0 -36 -13 -70 -29z"/>
<path d="M3505 3470 c-27 -22 -50 -43 -50 -47 0 -9 55 -81 55 -72 0 3 -11 20
-25 38 l-24 34 56 43 c31 24 52 44 47 43 -5 0 -31 -18 -59 -39z"/>
<path d="M3640 3323 c-61 -22 -79 -95 -35 -138 28 -29 54 -31 94 -10 32 16 41
33 41 73 -1 52 -54 92 -100 75z m64 -24 c36 -28 36 -80 0 -108 -34 -27 -62
-27 -91 1 -40 38 -26 101 27 121 26 10 37 7 64 -14z"/>
<path d="M1588 3214 c-159 -38 -261 -149 -259 -281 1 -106 44 -182 136 -244
59 -41 137 -72 295 -119 294 -89 375 -182 325 -375 -33 -125 -122 -195 -276
-217 -93 -13 -167 -3 -245 33 -69 32 -164 130 -200 206 l-29 61 -37 -59 c-29
-45 -36 -64 -29 -77 17 -33 108 -110 158 -135 99 -51 157 -62 318 -61 219 0
329 35 417 132 54 61 78 129 78 226 0 89 -28 154 -91 212 -61 55 -143 92 -343
153 -182 56 -246 84 -300 131 -99 87 -81 268 33 343 47 31 137 57 196 57 59 0
164 -28 210 -55 54 -32 108 -90 137 -148 l24 -49 17 93 c9 51 13 97 8 102 -14
14 -150 58 -228 73 -93 17 -239 17 -315 -2z"/>
<path d="M2541 3213 c21 -25 26 -1173 5 -1232 l-14 -41 83 0 83 0 -14 38 c-10
28 -13 116 -14 360 l0 322 88 0 c104 0 174 -18 213 -56 l29 -28 0 98 0 97 -36
-27 c-42 -33 -131 -53 -226 -54 l-68 0 0 233 c0 127 3 242 6 255 6 21 10 22
134 22 284 0 468 -38 542 -112 l21 -21 -6 24 c-3 13 -11 50 -17 82 l-11 57
-406 0 c-376 0 -404 -1 -392 -17z"/>
<path d="M3743 3076 c-34 -11 -65 -24 -69 -29 -4 -4 19 2 51 13 32 11 61 20
64 20 3 0 -19 -24 -48 -54 l-53 -54 68 -7 c95 -9 96 -9 34 -30 -30 -9 -59 -21
-65 -26 -5 -5 21 1 59 14 71 24 85 40 39 45 -15 1 -48 5 -73 8 l-45 6 59 52
c32 29 55 55 50 58 -5 3 -37 -4 -71 -16z"/>
<path d="M3772 2800 c-33 -31 -30 -92 4 -119 36 -28 79 -27 109 4 51 50 17
135 -54 135 -24 0 -45 -7 -59 -20z m108 -10 c20 -20 26 -65 12 -86 -11 -16
-48 -34 -71 -34 -55 0 -84 93 -39 124 31 22 74 20 98 -4z"/>
<path d="M3838 2541 l64 -6 -66 -38 c-36 -22 -66 -43 -66 -48 0 -5 35 -8 78
-7 l77 2 -70 5 -70 6 67 40 c37 22 68 43 68 48 0 4 -33 6 -72 5 l-73 -1 63 -6z"/>
<path d="M3768 2187 c30 -10 32 -13 27 -46 l-5 -36 11 34 c8 27 14 32 32 27
12 -3 26 -6 30 -6 5 0 6 -15 3 -32 -5 -25 -4 -28 3 -13 20 41 13 51 -41 64
-74 16 -99 19 -60 8z"/>
<path d="M3713 2005 c31 -18 30 -16 18 -49 -7 -18 -19 -26 -43 -29 l-33 -4 33
-1 c20 -1 32 -7 32 -16 0 -22 27 -38 50 -31 19 6 50 58 50 84 0 10 -68 44
-112 55 -20 6 -19 5 5 -9z m92 -65 c-8 -31 -33 -60 -52 -60 -21 0 -27 28 -14
70 11 37 12 38 42 27 25 -10 29 -16 24 -37z"/>
<path d="M3600 1823 c0 -6 5 -15 10 -18 7 -4 3 -20 -11 -44 -17 -31 -26 -37
-47 -34 -25 3 -25 2 3 -7 16 -5 56 -13 89 -16 l59 -7 -32 44 c-55 76 -71 94
-71 82z m72 -97 c10 -18 7 -18 -33 -12 -24 4 -45 9 -47 11 -2 2 4 15 14 29 16
26 17 26 36 9 11 -10 24 -26 30 -37z"/>
<path d="M3480 1643 c0 -5 23 -26 50 -47 28 -21 49 -40 48 -41 -2 -1 -28 1
-58 6 -30 4 -68 8 -85 8 -30 0 -30 0 25 -49 30 -28 60 -50 65 -50 6 0 -3 11
-20 24 -16 13 -41 33 -55 45 l-25 22 55 -6 c30 -3 67 -8 83 -11 41 -8 33 8
-28 61 -30 25 -55 43 -55 38z"/>
<path d="M3300 1457 c-37 -19 -57 -59 -42 -88 12 -23 12 -23 6 -1 -8 34 4 61
37 78 38 19 77 3 98 -41 12 -25 12 -32 -1 -54 -11 -20 -22 -26 -50 -26 -20 0
-34 -3 -31 -7 11 -19 62 -7 83 19 25 32 20 67 -13 99 -30 29 -57 36 -87 21z"/>
<path d="M3076 1289 c-54 -42 -18 -139 52 -139 44 0 82 35 82 74 0 75 -75 111
-134 65z m108 -11 c36 -51 5 -118 -54 -118 -63 0 -98 90 -48 124 33 24 84 20
102 -6z"/>
</g>
</svg>
