<svg width="500" height="500" viewBox="0 0 500 500" fill="none" xmlns="http://www.w3.org/2000/svg">
<path d="M247.995 455.312L248.995 44.3019" stroke="white" stroke-width="2.00091"/>
<path d="M33.4489 186.066C33.4489 266.327 191.032 245.53 191.032 319.181C191.032 346.342 162.892 372.525 127.168 372.525C68.9281 372.525 36.876 314.285 36.876 314.285H34.428V347.077C52.5322 360.535 81.1624 376.931 113.465 376.931C169.985 376.931 205.22 343.16 205.22 309.15C205.22 223.509 50.5791 247.244 50.5791 180.197C50.5791 153.035 75.5374 125.384 121.048 125.384C173.412 125.384 188.34 166.494 188.34 166.494H190.787V133.707C171.944 127.342 151.147 122.447 121.048 122.447C64.5218 122.447 33.4489 152.056 33.4489 186.066Z" fill="white"/>
<path d="M298.917 369.587V372.035H364.985V369.587C343.943 369.587 342.475 352.217 342.475 304.009V251.889C342.475 240.389 346.881 230.358 359.605 230.358C376.975 230.358 389.454 251.889 419.308 251.889C438.641 251.889 450.631 239.41 450.631 224.973H448.183C448.183 233.54 439.37 238.921 430.074 238.921C408.542 238.921 395.084 223.754 370.86 223.754C356.178 223.754 345.412 231.582 342.475 238.186V129.79H382.85C439.131 129.79 471.428 143.004 471.428 159.4V160.374H473.876V127.342H298.917V129.79C319.964 129.79 321.433 147.16 321.433 195.369V304.009C321.433 352.217 319.964 369.587 298.917 369.587Z" fill="white"/>
</svg>
